<?xml version="1.0" encoding="UTF-8"?>
<svg version="1.1" xmlns="http://www.w3.org/2000/svg" width="334" height="270">
<path d="M0 0 C13.55656187 3.4796877 23.89518291 2.76460217 37.34350586 -0.70043945 C52.40718431 -4.43745063 65.76705571 -3.45898406 79.5 4.25 C93.57055821 13.2614811 100.83720677 24.44550532 104.84375 40.6484375 C105.15366561 42.61984516 105.26050797 44.50350619 105.3125 46.5 C105.36277344 47.655 105.41304687 48.81 105.46484375 50 C105.87255458 66.4389007 105.87255458 66.4389007 100.73046875 72.3046875 C95.68100602 76.90310889 91.09704032 78.74572181 84.22233582 78.76742554 C82.99855728 78.77595551 81.77477875 78.78448547 80.51391602 78.79327393 C79.16577135 78.79257497 77.81762679 78.79165194 76.46948242 78.79052734 C75.04331613 78.79651471 73.61715308 78.80332073 72.19099426 78.81088257 C68.32309057 78.82852978 64.45527541 78.83323743 60.58733535 78.83451414 C58.1685639 78.83593715 55.74981485 78.84020961 53.33104897 78.84550858 C44.88629354 78.86400539 36.44160119 78.87217972 27.99682617 78.87060547 C20.13569902 78.86940451 12.27484662 78.89049859 4.41378897 78.9220928 C-2.34393119 78.94828086 -9.10156177 78.95897169 -15.85933226 78.95769465 C-19.89161352 78.95718571 -23.92365059 78.96283086 -27.95588112 78.98405075 C-31.75057192 79.00347573 -35.5447867 79.00352895 -39.33949471 78.98901749 C-40.72778268 78.98693346 -42.11610078 78.9916061 -43.50433731 79.0037384 C-51.87817142 79.07214778 -58.65325601 78.97023896 -65.19782734 73.15888023 C-71.22412339 66.66137124 -71.01084842 58.69183211 -70.87109375 50.34765625 C-70.12429542 34.69666989 -64.58678813 20.80895913 -53.125 9.8125 C-37.41627507 -3.13492563 -19.04071702 -4.95676736 0 0 Z M-43.3828125 27.578125 C-50.44705167 38.30959216 -51.6875 46.45515527 -51.6875 59.5 C-6.1475 59.5 39.3925 59.5 86.3125 59.5 C86.3125 46.96379072 85.32081376 36.40956082 76.8125 26.625 C75.9875 25.92375 75.1625 25.2225 74.3125 24.5 C73.2296875 23.4790625 73.2296875 23.4790625 72.125 22.4375 C64.6906979 17.31609189 57.27065939 15.3495132 48.3125 16.5 C44.19882166 17.3378946 40.15409747 18.40848291 36.109375 19.52734375 C20.67318745 23.48167575 4.80277637 21.89037125 -10.328125 17.42578125 C-22.24730133 14.141078 -35.4355772 17.83635269 -43.3828125 27.578125 Z " fill="#050505" transform="translate(145.6875,155.5)"/>
<path d="M0 0 C12.58638917 9.34355674 21.60526969 22.28877871 24 38 C24.80138794 49.19438774 24.46208446 59.54637445 20 70 C19.61070312 70.92941406 19.22140625 71.85882813 18.8203125 72.81640625 C12.77073035 85.39882119 1.57195731 95.14654707 -11.3125 100.1875 C-19.29881447 102.91966021 -27.53119346 104.65480463 -36 104 C-37.03898437 103.93167969 -38.07796875 103.86335938 -39.1484375 103.79296875 C-53.72424576 102.32895269 -66.54564489 94.71086572 -76.0625 83.58984375 C-84.07968452 72.68716394 -88.06570481 60.97234398 -88.8125 47.5625 C-88.87630859 46.76779297 -88.94011719 45.97308594 -89.00585938 45.15429688 C-89.35187622 39.16479404 -88.26712045 34.52687202 -86 29 C-85.525625 27.83855469 -85.05125 26.67710938 -84.5625 25.48046875 C-77.98993953 11.62879757 -68.397531 0.5590124 -53.81640625 -5.2734375 C-35.48093169 -11.60220595 -16.60736021 -10.54878896 0 0 Z M-61.8125 24.1875 C-68.59387687 33.66565698 -70.40448787 43.4614057 -69 55 C-67.7890091 59.293062 -66.13264067 63.08917416 -64 67 C-63.62746094 67.68835938 -63.25492188 68.37671875 -62.87109375 69.0859375 C-58.01039074 76.84273882 -48.9552654 81.34179736 -40.390625 83.7265625 C-31.33538747 85.71488185 -22.6329822 84.84084117 -14.2890625 80.6328125 C-5.62567867 75.07788532 1.12155567 67.29382022 4.4921875 57.453125 C6.75843687 46.50539728 5.30258745 36.03350436 -0.5078125 26.53515625 C-6.78046927 17.76802434 -15.56715425 12.51291819 -26 10 C-39.71663725 8.23823008 -52.92333231 13.6186382 -61.8125 24.1875 Z " fill="#060606" transform="translate(195,43)"/>
<path d="M0 0 C1.05119019 -0.00945648 2.10238037 -0.01891296 3.1854248 -0.02865601 C4.31984009 -0.02258331 5.45425537 -0.01651062 6.62304688 -0.01025391 C8.37059265 -0.01455917 8.37059265 -0.01455917 10.15344238 -0.01895142 C12.61808762 -0.02099408 15.082749 -0.0154502 17.54736328 -0.00292969 C21.32686502 0.01312018 25.10529727 -0.00277254 28.88476562 -0.02197266 C31.27669508 -0.01999026 33.66862386 -0.01614667 36.06054688 -0.01025391 C37.19496216 -0.0163266 38.32937744 -0.02239929 39.49816895 -0.02865601 C41.07495422 -0.01447128 41.07495422 -0.01447128 42.68359375 0 C43.60942261 0.00238678 44.53525146 0.00477356 45.48913574 0.00723267 C47.84179688 0.38818359 47.84179688 0.38818359 49.64074707 1.69369507 C51.64931418 4.52746092 51.20009556 7.04406253 50.84179688 10.38818359 C49.64074707 12.08267212 49.64074707 12.08267212 47.84179688 13.38818359 C45.48913574 13.76913452 45.48913574 13.76913452 42.68359375 13.77636719 C41.63240356 13.78582367 40.58121338 13.79528015 39.49816895 13.80502319 C38.36375366 13.7989505 37.22933838 13.79287781 36.06054688 13.78662109 C34.89551636 13.78949127 33.73048584 13.79236145 32.53015137 13.7953186 C30.06550613 13.79736126 27.60084475 13.79181739 25.13623047 13.77929688 C21.35672873 13.763247 17.57829648 13.77913973 13.79882812 13.79833984 C11.40689867 13.79635745 9.01496989 13.79251385 6.62304688 13.78662109 C5.48863159 13.79269379 4.35421631 13.79876648 3.1854248 13.80502319 C1.60863953 13.79083847 1.60863953 13.79083847 0 13.77636719 C-0.92582886 13.77398041 -1.85165771 13.77159363 -2.80554199 13.76913452 C-5.15820312 13.38818359 -5.15820312 13.38818359 -6.95715332 12.08267212 C-8.96572043 9.24890627 -8.51650181 6.73230465 -8.15820312 3.38818359 C-5.84971033 0.13127074 -3.86110061 0.00995389 0 0 Z " fill="#000000" transform="translate(263.158203125,85.61181640625)"/>
<path d="M0 0 C7.26692328 -0.0462955 14.53381488 -0.08185493 21.80085564 -0.10362434 C25.17506994 -0.11407142 28.54918352 -0.12824725 31.92333984 -0.15087891 C35.80048318 -0.17504885 39.67748277 -0.18646511 43.5546875 -0.1953125 C44.76929657 -0.20563507 45.98390564 -0.21595764 47.23532104 -0.22659302 C48.35633209 -0.22674408 49.47734314 -0.22689514 50.63232422 -0.22705078 C51.62271698 -0.231492 52.61310974 -0.23593323 53.6335144 -0.24050903 C56 0 56 0 58 2 C58.31537716 6.33643601 58.44897847 8.32653229 56 12 C53.6335144 12.36076355 53.6335144 12.36076355 50.63232422 12.34057617 C49.51131317 12.34034958 48.39030212 12.34012299 47.23532104 12.33988953 C46.02071198 12.32440567 44.80610291 12.30892181 43.5546875 12.29296875 C42.31453888 12.28872391 41.07439026 12.28447906 39.79666138 12.28010559 C36.49864537 12.26613216 33.2010665 12.23917361 29.90319824 12.20599365 C26.53838458 12.17531238 23.17350696 12.16160446 19.80859375 12.14648438 C13.20555729 12.1133473 6.60281442 12.06309697 0 12 C-1.1671568 8.49852959 -1.13357453 5.67329964 -1 2 C-0.67 1.34 -0.34 0.68 0 0 Z " fill="#000000" transform="translate(256,144)"/>
<path d="M0 0 C2.31506348 -0.38095093 2.31506348 -0.38095093 5.24414062 -0.38818359 C6.88594299 -0.40236832 6.88594299 -0.40236832 8.56091309 -0.4168396 C9.74737427 -0.41076691 10.93383545 -0.40469421 12.15625 -0.3984375 C13.97606384 -0.40274277 13.97606384 -0.40274277 15.8326416 -0.40713501 C18.40161607 -0.40917952 20.97060596 -0.40362281 23.53955078 -0.39111328 C27.48375075 -0.37506611 31.42692585 -0.39095004 35.37109375 -0.41015625 C37.86198144 -0.40817389 40.35286849 -0.40433036 42.84375 -0.3984375 C44.62344177 -0.40754654 44.62344177 -0.40754654 46.43908691 -0.4168396 C47.53362183 -0.40738312 48.62815674 -0.39792664 49.75585938 -0.38818359 C51.20575256 -0.38460342 51.20575256 -0.38460342 52.68493652 -0.38095093 C53.44890747 -0.25523712 54.21287842 -0.12952332 55 0 C57 3 57 3 56 12 C37.19 12 18.38 12 -1 12 C-2 3 -2 3 0 0 Z " fill="#000000" transform="translate(257,115)"/>
<path d="M0 0 C2.5625 0.3125 2.5625 0.3125 4.4375 1.5 C5.5625 3.3125 5.5625 3.3125 5.33300781 5.68798828 C3.99998515 10.22854394 0.60664871 12.92436964 -2.6875 16.1875 C-3.35652344 16.88875 -4.02554688 17.59 -4.71484375 18.3125 C-5.37097656 18.96992187 -6.02710938 19.62734375 -6.703125 20.3046875 C-7.29899414 20.90651855 -7.89486328 21.50834961 -8.50878906 22.12841797 C-10.4375 23.3125 -10.4375 23.3125 -13.02880859 23.10498047 C-16.01411793 22.12278767 -17.58398993 20.76615679 -19.8125 18.5625 C-20.52148438 17.88703125 -21.23046875 17.2115625 -21.9609375 16.515625 C-23.4375 14.3125 -23.4375 14.3125 -23.2890625 11.671875 C-22.4375 9.3125 -22.4375 9.3125 -20.4375 7.3125 C-16.59572926 7.61579769 -14.34322328 8.83725424 -11.4375 11.3125 C-11.210625 10.755625 -10.98375 10.19875 -10.75 9.625 C-9.07325448 6.67073409 -6.89173315 4.64402149 -4.4375 2.3125 C-2.4375 0.3125 -2.4375 0.3125 0 0 Z " fill="#000000" transform="translate(244.4375,80.6875)"/>
<path d="M0 0 C2.56269497 1.04109483 4.02610343 2.02610343 6 4 C6 8 6 8 3.8125 10.5 C1.26917422 12.76073402 -1.34382507 14.87506006 -4 17 C-5.68615782 18.64694485 -7.35570171 20.31126121 -9 22 C-9.66 22.66 -10.32 23.32 -11 24 C-14.72441354 23.71772866 -16.70915512 21.78195517 -19.3125 19.25 C-20.38951172 18.23679687 -20.38951172 18.23679687 -21.48828125 17.203125 C-23 15 -23 15 -22.85546875 12.359375 C-22 10 -22 10 -20 8 C-16.55834679 8.35299007 -14.93127462 9.04581692 -12 11 C-10.95199219 9.93458984 -10.95199219 9.93458984 -9.8828125 8.84765625 C-8.97273437 7.92855469 -8.06265625 7.00945312 -7.125 6.0625 C-6.22007812 5.14597656 -5.31515625 4.22945313 -4.3828125 3.28515625 C-2 1 -2 1 0 0 Z " fill="#000000" transform="translate(244,109)"/>
<path d="M0 0 C2.92488107 1.99140839 4.66988282 3.41229358 5.41015625 6.97265625 C5.54322655 10.06798704 5.17432254 12.60008358 3.9375 15.4375 C1.04394157 17.77101487 -1.3333943 17.87356532 -5 18 C-8.71182391 17.24076329 -9.70798701 16.40505027 -11.9375 13.3125 C-13.29765691 9.0720108 -12.75724867 7.04931216 -11 3 C-7.84250105 -0.62527657 -4.6152059 -0.6477482 0 0 Z " fill="#000000" transform="translate(236,141)"/>
<path d="M0 0 C0.33 0 0.66 0 1 0 C1 1.65 1 3.3 1 5 C0.67 5 0.34 5 0 5 C0 3.35 0 1.7 0 0 Z " fill="#545454" transform="translate(110,193)"/>
<path d="M0 0 C4 1 4 1 4 1 Z " fill="#292929" transform="translate(88,157)"/>
<path d="M0 0 C1 4 1 4 1 4 Z " fill="#2C2C2C" transform="translate(67,133)"/>
<path d="M0 0 C4 1 4 1 4 1 Z " fill="#242424" transform="translate(76,124)"/>
<path d="" fill="#444444" transform="translate(0,0)"/>
<path d="" fill="#444444" transform="translate(0,0)"/>
<path d="M0 0 C2 1 2 1 2 1 Z " fill="#3B3B3B" transform="translate(98,212)"/>
<path d="M0 0 C2 1 2 1 2 1 Z " fill="#454545" transform="translate(261,207)"/>
<path d="M0 0 C2 1 2 1 2 1 Z " fill="#3F3F3F" transform="translate(146,207)"/>
<path d="" fill="#3F3F3F" transform="translate(0,0)"/>
<path d="" fill="#454545" transform="translate(0,0)"/>
<path d="" fill="#3F3F3F" transform="translate(0,0)"/>
<path d="" fill="#454545" transform="translate(0,0)"/>
<path d="M0 0 C2 1 2 1 2 1 Z " fill="#454545" transform="translate(261,183)"/>
<path d="M0 0 C2 1 2 1 2 1 Z " fill="#3F3F3F" transform="translate(146,183)"/>
<path d="" fill="#262626" transform="translate(0,0)"/>
<path d="M0 0 C2 1 2 1 2 1 Z " fill="#454545" transform="translate(261,82)"/>
<path d="M0 0 C2 1 2 1 2 1 Z " fill="#3F3F3F" transform="translate(146,82)"/>
<path d="" fill="#3F3F3F" transform="translate(0,0)"/>
<path d="" fill="#454545" transform="translate(0,0)"/>
<path d="M0 0 C2 1 2 1 2 1 Z " fill="#2C2C2C" transform="translate(89,71)"/>
<path d="" fill="#3A3A3A" transform="translate(0,0)"/>
<path d="" fill="#3F3F3F" transform="translate(0,0)"/>
<path d="" fill="#454545" transform="translate(0,0)"/>
<path d="M0 0 C2 1 2 1 2 1 Z " fill="#454545" transform="translate(261,58)"/>
<path d="M0 0 C2 1 2 1 2 1 Z " fill="#3F3F3F" transform="translate(146,58)"/>
<path d="" fill="#4A4A4A" transform="translate(0,0)"/>
<path d="" fill="#0C0C0C" transform="translate(0,0)"/>
<path d="" fill="#222222" transform="translate(0,0)"/>
<path d="" fill="#333333" transform="translate(0,0)"/>
<path d="" fill="#555555" transform="translate(0,0)"/>
<path d="" fill="#0D0D0D" transform="translate(0,0)"/>
<path d="" fill="#555555" transform="translate(0,0)"/>
<path d="" fill="#333333" transform="translate(0,0)"/>
<path d="" fill="#494949" transform="translate(0,0)"/>
<path d="" fill="#3A3A3A" transform="translate(0,0)"/>
<path d="" fill="#4E4E4E" transform="translate(0,0)"/>
<path d="" fill="#313131" transform="translate(0,0)"/>
<path d="" fill="#4E4E4E" transform="translate(0,0)"/>
<path d="" fill="#313131" transform="translate(0,0)"/>
<path d="" fill="#3A3A3A" transform="translate(0,0)"/>
<path d="" fill="#080808" transform="translate(0,0)"/>
<path d="" fill="#555555" transform="translate(0,0)"/>
<path d="" fill="#333333" transform="translate(0,0)"/>
<path d="" fill="#494949" transform="translate(0,0)"/>
<path d="" fill="#171717" transform="translate(0,0)"/>
<path d="" fill="#333333" transform="translate(0,0)"/>
<path d="" fill="#555555" transform="translate(0,0)"/>
<path d="" fill="#0D0D0D" transform="translate(0,0)"/>
<path d="" fill="#303030" transform="translate(0,0)"/>
<path d="" fill="#101010" transform="translate(0,0)"/>
<path d="" fill="#2B2B2B" transform="translate(0,0)"/>
<path d="" fill="#2B2B2B" transform="translate(0,0)"/>
<path d="" fill="#2B2B2B" transform="translate(0,0)"/>
<path d="" fill="#2B2B2B" transform="translate(0,0)"/>
<path d="" fill="#2B2B2B" transform="translate(0,0)"/>
<path d="" fill="#2B2B2B" transform="translate(0,0)"/>
<path d="" fill="#2B2B2B" transform="translate(0,0)"/>
<path d="" fill="#2B2B2B" transform="translate(0,0)"/>
<path d="" fill="#2B2B2B" transform="translate(0,0)"/>
<path d="" fill="#2B2B2B" transform="translate(0,0)"/>
<path d="" fill="#2B2B2B" transform="translate(0,0)"/>
<path d="" fill="#2B2B2B" transform="translate(0,0)"/>
<path d="" fill="#2B2B2B" transform="translate(0,0)"/>
<path d="" fill="#2B2B2B" transform="translate(0,0)"/>
<path d="" fill="#2B2B2B" transform="translate(0,0)"/>
<path d="" fill="#2B2B2B" transform="translate(0,0)"/>
<path d="" fill="#2B2B2B" transform="translate(0,0)"/>
<path d="" fill="#2B2B2B" transform="translate(0,0)"/>
<path d="" fill="#2B2B2B" transform="translate(0,0)"/>
<path d="" fill="#101010" transform="translate(0,0)"/>
<path d="" fill="#2B2B2B" transform="translate(0,0)"/>
<path d="" fill="#2B2B2B" transform="translate(0,0)"/>
<path d="" fill="#2B2B2B" transform="translate(0,0)"/>
<path d="" fill="#2B2B2B" transform="translate(0,0)"/>
<path d="" fill="#2B2B2B" transform="translate(0,0)"/>
<path d="" fill="#2B2B2B" transform="translate(0,0)"/>
<path d="" fill="#2B2B2B" transform="translate(0,0)"/>
<path d="" fill="#2B2B2B" transform="translate(0,0)"/>
<path d="" fill="#646464" transform="translate(0,0)"/>
<path d="" fill="#565656" transform="translate(0,0)"/>
<path d="" fill="#464646" transform="translate(0,0)"/>
<path d="" fill="#404040" transform="translate(0,0)"/>
<path d="" fill="#101010" transform="translate(0,0)"/>
<path d="" fill="#565656" transform="translate(0,0)"/>
<path d="" fill="#676767" transform="translate(0,0)"/>
<path d="" fill="#595959" transform="translate(0,0)"/>
<path d="" fill="#595959" transform="translate(0,0)"/>
<path d="" fill="#5B5B5B" transform="translate(0,0)"/>
<path d="" fill="#4B4B4B" transform="translate(0,0)"/>
<path d="" fill="#5D5D5D" transform="translate(0,0)"/>
<path d="" fill="#404040" transform="translate(0,0)"/>
<path d="" fill="#5F5F5F" transform="translate(0,0)"/>
<path d="" fill="#404040" transform="translate(0,0)"/>
<path d="" fill="#626262" transform="translate(0,0)"/>
<path d="" fill="#414141" transform="translate(0,0)"/>
<path d="" fill="#646464" transform="translate(0,0)"/>
<path d="" fill="#434343" transform="translate(0,0)"/>
<path d="" fill="#656565" transform="translate(0,0)"/>
<path d="" fill="#464646" transform="translate(0,0)"/>
<path d="" fill="#626262" transform="translate(0,0)"/>
<path d="" fill="#484848" transform="translate(0,0)"/>
<path d="" fill="#5F5F5F" transform="translate(0,0)"/>
<path d="" fill="#4A4A4A" transform="translate(0,0)"/>
<path d="" fill="#5B5B5B" transform="translate(0,0)"/>
<path d="" fill="#4D4D4D" transform="translate(0,0)"/>
<path d="" fill="#585858" transform="translate(0,0)"/>
<path d="" fill="#333333" transform="translate(0,0)"/>
<path d="" fill="#555555" transform="translate(0,0)"/>
<path d="" fill="#545454" transform="translate(0,0)"/>
<path d="" fill="#555555" transform="translate(0,0)"/>
<path d="" fill="#333333" transform="translate(0,0)"/>
<path d="" fill="#515151" transform="translate(0,0)"/>
<path d="" fill="#4D4D4D" transform="translate(0,0)"/>
<path d="" fill="#4A4A4A" transform="translate(0,0)"/>
<path d="" fill="#464646" transform="translate(0,0)"/>
<path d="" fill="#434343" transform="translate(0,0)"/>
<path d="" fill="#404040" transform="translate(0,0)"/>
<path d="" fill="#2B2B2B" transform="translate(0,0)"/>
<path d="" fill="#2D2D2D" transform="translate(0,0)"/>
<path d="" fill="#323232" transform="translate(0,0)"/>
<path d="" fill="#2F2F2F" transform="translate(0,0)"/>
<path d="" fill="#373737" transform="translate(0,0)"/>
<path d="" fill="#101010" transform="translate(0,0)"/>
<path d="" fill="#303030" transform="translate(0,0)"/>
<path d="" fill="#3C3C3C" transform="translate(0,0)"/>
<path d="" fill="#080808" transform="translate(0,0)"/>
<path d="" fill="#323232" transform="translate(0,0)"/>
<path d="" fill="#404040" transform="translate(0,0)"/>
<path d="" fill="#131313" transform="translate(0,0)"/>
<path d="" fill="#343434" transform="translate(0,0)"/>
<path d="" fill="#454545" transform="translate(0,0)"/>
<path d="" fill="#1E1E1E" transform="translate(0,0)"/>
<path d="" fill="#353535" transform="translate(0,0)"/>
<path d="" fill="#4A4A4A" transform="translate(0,0)"/>
<path d="" fill="#292929" transform="translate(0,0)"/>
<path d="" fill="#373737" transform="translate(0,0)"/>
<path d="" fill="#4F4F4F" transform="translate(0,0)"/>
<path d="" fill="#333333" transform="translate(0,0)"/>
<path d="" fill="#393939" transform="translate(0,0)"/>
<path d="" fill="#535353" transform="translate(0,0)"/>
<path d="" fill="#2C2C2C" transform="translate(0,0)"/>
<path d="" fill="#3A3A3A" transform="translate(0,0)"/>
<path d="" fill="#606060" transform="translate(0,0)"/>
<path d="" fill="#3C3C3C" transform="translate(0,0)"/>
<path d="" fill="#555555" transform="translate(0,0)"/>
<path d="" fill="#333333" transform="translate(0,0)"/>
<path d="" fill="#3E3E3E" transform="translate(0,0)"/>
<path d="" fill="#333333" transform="translate(0,0)"/>
<path d="" fill="#555555" transform="translate(0,0)"/>
<path d="" fill="#404040" transform="translate(0,0)"/>
<path d="" fill="#414141" transform="translate(0,0)"/>
<path d="" fill="#434343" transform="translate(0,0)"/>
<path d="" fill="#454545" transform="translate(0,0)"/>
<path d="" fill="#464646" transform="translate(0,0)"/>
<path d="" fill="#484848" transform="translate(0,0)"/>
<path d="" fill="#4A4A4A" transform="translate(0,0)"/>
<path d="" fill="#4B4B4B" transform="translate(0,0)"/>
<path d="" fill="#4D4D4D" transform="translate(0,0)"/>
<path d="" fill="#4F4F4F" transform="translate(0,0)"/>
<path d="" fill="#515151" transform="translate(0,0)"/>
<path d="" fill="#525252" transform="translate(0,0)"/>
<path d="" fill="#545454" transform="translate(0,0)"/>
<path d="" fill="#303030" transform="translate(0,0)"/>
</svg>
