<?xml version="1.0" encoding="UTF-8"?>
<svg version="1.1" xmlns="http://www.w3.org/2000/svg" width="512" height="512">
<path d="M0 0 C168.96 0 337.92 0 512 0 C512 168.96 512 337.92 512 512 C343.04 512 174.08 512 0 512 C0 343.04 0 174.08 0 0 Z " fill="#0057FF" transform="translate(0,0)"/>
<path d="M0 0 C116.16 0 232.32 0 352 0 C352 110.55 352 221.1 352 335 C235.84 335 119.68 335 0 335 C0 224.45 0 113.9 0 0 Z " fill="#0057FF" transform="translate(55,115)"/>
<path d="M0 0 C131.67 0 263.34 0 399 0 C399 125.73 399 251.46 399 381 C267.33 381 135.66 381 0 381 C0 255.27 0 129.54 0 0 Z M23 24 C23 134.55 23 245.1 23 359 C139.16 359 255.32 359 375 359 C375 248.45 375 137.9 375 24 C258.84 24 142.68 24 23 24 Z " fill="#FFFFFF" transform="translate(32,91)"/>
<path d="M0 0 C126.06 0 252.12 0 382 0 C382 125.4 382 250.8 382 380 C374.41 380 366.82 380 359 380 C357.92893477 376.78680431 357.87575457 374.49636334 357.87695217 371.11792469 C357.8749613 369.88192461 357.87297043 368.64592453 357.87091923 367.3724699 C357.87377148 365.99431019 357.87671687 364.61615067 357.87974548 363.23799133 C357.87930823 361.78287741 357.87843163 360.32776357 357.87715149 358.87265015 C357.87490149 354.85632962 357.87893152 350.8400356 357.88392727 346.82371844 C357.88828185 342.43281112 357.88683346 338.0419051 357.88610935 333.65099621 C357.88557683 325.12047385 357.89020255 316.58996198 357.89661068 308.05944232 C357.90379891 298.19599924 357.90460478 288.33256249 357.90539551 278.46911621 C357.91065 252.41690914 357.92461106 226.36470441 357.9375 200.3125 C357.958125 142.129375 357.97875 83.94625 358 24 C239.86 24 121.72 24 0 24 C0 16.08 0 8.16 0 0 Z " fill="#FFFFFF" transform="translate(98,40)"/>
<path d="M0 0 C29.37 0 58.74 0 89 0 C89 29.37 89 58.74 89 89 C59.63 89 30.26 89 0 89 C0 59.63 0 30.26 0 0 Z " fill="#FFFFFF" transform="translate(98,309)"/>
<path d="M0 0 C29.37 0 58.74 0 89 0 C89 29.37 89 58.74 89 89 C59.63 89 30.26 89 0 89 C0 59.63 0 30.26 0 0 Z " fill="#FFFFFF" transform="translate(98,175)"/>
<path d="M0 0 C1.11228972 0.9457431 2.22348623 1.892772 3.33422852 2.84033203 C3.95314468 3.36756866 4.57206085 3.8948053 5.20973206 4.4380188 C7.5563298 6.48538918 9.75278049 8.65666942 11.9375 10.875 C13.09572266 12.04675781 13.09572266 12.04675781 14.27734375 13.2421875 C15.13005859 14.11230469 15.13005859 14.11230469 16 15 C14.56906155 18.26362976 12.82129135 20.42615023 10.30477905 22.93572998 C9.53634171 23.70691666 8.76790436 24.47810333 7.97618103 25.2726593 C7.13245438 26.1091954 6.28872772 26.94573151 5.41943359 27.80761719 C4.53156662 28.69577621 3.64369965 29.58393524 2.72892761 30.49900818 C0.29763109 32.93087819 -2.13977964 35.35653521 -4.57833529 37.78112316 C-7.12703803 40.31731792 -9.67007289 42.85918285 -12.2137146 45.40045166 C-17.02976284 50.21028534 -21.85088633 55.01499831 -26.67385423 59.81789231 C-32.16504458 65.28672294 -37.65055261 70.76123807 -43.13559079 76.236238 C-54.41741655 87.4971623 -65.70635667 98.75092689 -77 110 C-80.48933577 108.35296864 -82.75955899 106.48320216 -85.49316406 103.73388672 C-86.37377502 102.85312469 -87.25438599 101.97236267 -88.16168213 101.06491089 C-89.11310431 100.10327649 -90.06441603 99.1415328 -91.015625 98.1796875 C-91.99596129 97.19561893 -92.97674168 96.21199258 -93.95794678 95.22879028 C-96.53354467 92.64557286 -99.10307857 90.05640488 -101.67138672 87.46594238 C-104.29551067 84.8213238 -106.92533771 82.1823899 -109.5546875 79.54296875 C-114.7087167 74.36751928 -119.85635157 69.18576878 -125 64 C-123.60403514 61.09380865 -122.26935799 59.02878234 -119.9609375 56.765625 C-119.38085938 56.19199219 -118.80078125 55.61835938 -118.203125 55.02734375 C-117.29820312 54.14755859 -117.29820312 54.14755859 -116.375 53.25 C-115.76398438 52.64800781 -115.15296875 52.04601562 -114.5234375 51.42578125 C-113.02011376 49.94594695 -111.51065144 48.47235324 -110 47 C-107.19030533 48.28022875 -105.1460762 49.60714129 -102.97558594 51.79736328 C-102.41530701 52.35779327 -101.85502808 52.91822327 -101.277771 53.49563599 C-100.68595032 54.09777924 -100.09412964 54.69992249 -99.484375 55.3203125 C-98.86854553 55.93897186 -98.25271606 56.55763123 -97.6182251 57.19503784 C-95.65739664 59.16703814 -93.70364699 61.14588737 -91.75 63.125 C-90.41973201 64.46530164 -89.089008 65.80515083 -87.7578125 67.14453125 C-84.4998985 70.42446589 -81.24831467 73.71055942 -78 77 C-72.99380051 72.80470818 -68.29184779 68.43128848 -63.68774414 63.80126953 C-62.99421844 63.10788986 -62.30069275 62.41451019 -61.58615112 61.70011902 C-59.3167716 59.43004829 -57.05094505 57.1564667 -54.78515625 54.8828125 C-53.20354236 53.29933161 -51.62170611 51.71607279 -50.03965759 50.13302612 C-45.89303355 45.98259908 -41.74942249 41.8291768 -37.60644531 37.67510986 C-33.37161778 33.4300204 -29.1339288 29.1877895 -24.89648438 24.9453125 C-16.59486345 16.63299338 -8.29642478 8.31750511 0 0 Z " fill="#008000" transform="translate(348,154)"/>
<path d="M0 0 C43.89 0 87.78 0 133 0 C133 7.26 133 14.52 133 22 C89.11 22 45.22 22 0 22 C0 14.74 0 7.48 0 0 Z " fill="#C00000" transform="translate(231,343)"/>
<path d="M0 0 C14.19 0 28.38 0 43 0 C43 14.19 43 28.38 43 43 C28.81 43 14.62 43 0 43 C0 28.81 0 14.62 0 0 Z " fill="#0057FF" transform="translate(121,332)"/>
<path d="M0 0 C14.19 0 28.38 0 43 0 C43 14.19 43 28.38 43 43 C28.81 43 14.62 43 0 43 C0 28.81 0 14.62 0 0 Z " fill="#0057FF" transform="translate(121,198)"/>
</svg>
